<?xml version="1.0" encoding="UTF-8" standalone="no"?>
<svg
   xmlns:dc="http://purl.org/dc/elements/1.1/"
   xmlns:cc="http://creativecommons.org/ns#"
   xmlns:rdf="http://www.w3.org/1999/02/22-rdf-syntax-ns#"
   xmlns:svg="http://www.w3.org/2000/svg"
   xmlns="http://www.w3.org/2000/svg"
   xmlns:sodipodi="http://sodipodi.sourceforge.net/DTD/sodipodi-0.dtd"
   xmlns:inkscape="http://www.inkscape.org/namespaces/inkscape"
   sodipodi:docname="logo.svg"
   inkscape:version="1.0rc1 (09960d6, 2020-04-09)"
   id="svg8"
   version="1.1"
   viewBox="0 0 174.40964 86.929344"
   height="86.929344mm"
   width="174.40964mm">
  <defs
     id="defs2" />
  <sodipodi:namedview
     inkscape:window-maximized="0"
     inkscape:window-y="23"
     inkscape:window-x="0"
     inkscape:window-height="1005"
     inkscape:window-width="1613"
     showgrid="false"
     inkscape:document-rotation="0"
     inkscape:current-layer="layer1"
     inkscape:document-units="mm"
     inkscape:cy="260.23689"
     inkscape:cx="-197.02256"
     inkscape:zoom="0.24258858"
     inkscape:pageshadow="2"
     inkscape:pageopacity="0.0"
     borderopacity="1.0"
     bordercolor="#666666"
     pagecolor="#ffffff"
     id="base" />
  <metadata
     id="metadata5">
    <rdf:RDF>
      <cc:Work
         rdf:about="">
        <dc:format>image/svg+xml</dc:format>
        <dc:type
           rdf:resource="http://purl.org/dc/dcmitype/StillImage" />
        <dc:title></dc:title>
      </cc:Work>
    </rdf:RDF>
  </metadata>
  <g
     transform="translate(-15.887521,-79.645655)"
     style="display:inline"
     id="layer1"
     inkscape:groupmode="layer"
     inkscape:label="Layer 1">
    <path
       sodipodi:nodetypes="sssscsssssssssssssssssssssssssssscsssssssssssssssssss"
       inkscape:connector-curvature="0"
       id="path80"
       d="m 95.467417,160.26737 c 0,-11.04807 -0.46382,-11.39939 -15.063082,-11.40939 -24.928615,-0.0171 -34.977794,-6.2255 -39.116817,-24.16654 -3.323391,-14.4056 -7.177909,-19.97577 -17.079693,-24.68189 l -8.320304,-3.954471 7.191063,-2.106016 c 3.955085,-1.15831 13.34863,-2.134084 20.874545,-2.168389 11.015136,-0.05021 15.11331,0.642281 21.015748,3.55114 14.627262,7.208656 24.343529,20.496586 28.989508,39.645936 1.531153,6.31096 3.482308,13.28553 4.335897,15.49903 0.85359,2.21351 2.048408,6.74113 2.655148,10.06139 0.9809,5.36777 0.73825,6.03683 -2.189424,6.03683 -2.756684,0 -3.292589,-1.02664 -3.292589,-6.30763 z m -18.566942,-36.7551 c -5.37753,-8.16973 -21.859417,-24.053931 -27.381504,-24.754325 -9.370538,-1.188511 2.521226,1.507945 5.808659,4.293285 3.287431,2.78534 14.180127,11.92383 17.766763,17.71186 14.326901,23.12041 18.301906,24.77174 3.806082,2.74918 z m 59.133245,35.09537 c -8.30513,-2.06057 -7.57356,-2.80121 2.62997,-2.66258 11.69448,0.15889 20.55091,-5.07079 26.88174,-15.87354 7.67675,-13.09939 11.59293,-34.66974 6.29441,-34.66974 -7.31879,0 -26.41176,3.96108 -31.44984,6.52468 -3.18274,1.61951 -8.16155,5.64927 -11.06404,8.95502 -4.3936,5.00403 -5.07057,5.35685 -4.04296,2.10711 2.12012,-6.70469 8.50267,-13.68334 16.45982,-17.99705 8.71267,-4.7233 28.57194,-9.248684 40.58709,-9.248684 9.25546,0 8.97287,-0.726676 6.46446,16.623194 -2.7539,19.04799 -14.28918,37.10714 -27.74013,43.42886 -6.77213,3.18279 -18.30395,4.47916 -25.02052,2.81273 z m -27.68773,-10.94348 c 0,-0.9082 3.41253,-2.16301 7.58339,-2.78847 11.77039,-1.76508 23.8197,-6.89055 33.06796,-14.06629 l 12.95175,-11.05852 -10.94283,11.26526 c -3.57826,3.6837 -10.79221,8.908 -16.11244,11.53123 -10.01672,4.93891 -26.54783,8.12509 -26.54783,5.11679 z m -3.90184,-18.53813 c -1.54608,-5.34293 -0.0131,-16.2714 3.21509,-22.91933 1.28982,-2.65621 4.14243,-7.884176 3.58697,-6.11338 -0.55546,1.77081 -3.7687,13.51855 -4.38837,20.60177 -0.89476,10.22761 -1.39159,11.96306 -2.41369,8.43094 z m -8.89205,-8.3289 c -3.265923,-3.9352 -3.859555,-14.16991 -1.192159,-20.55388 2.346984,-5.617125 19.067979,-20.595342 22.994209,-20.597595 0.97019,-5.57e-4 2.93394,5.323493 4.36391,11.831223 2.78647,12.681122 1.76547,21.314832 -2.98707,25.259082 -2.13061,1.76825 -2.22874,1.47217 -0.77735,-2.34529 2.155,-5.66808 2.11264,-13.65244 -0.1062,-20.017413 -2.10551,-6.039874 -2.84104,-6.159795 -8.87875,-1.447588 -11.329004,8.841861 -14.996605,16.382601 -11.912894,24.493371 2.004619,5.27255 1.328731,6.79095 -1.503694,3.37809 z"
       style="display:inline;fill:#478124;fill-opacity:1;stroke-width:1.60982" />
  </g>
</svg>
